{"title":"Operatsioon =Valküür ( Valkyrie 2008) DVDRIP EESTI SUB","uid":9383402,"size":1947733404,"categoryP":"video","categoryS":"movies","magnet":"?xt=urn:btih:6b8e688d8f945659ad125bd0915d7b7f6b9e65a4&amp;dn=Operatsioon+%3DValk%26uuml%3B%26uuml%3Br+%28+Valkyrie+2008%29+DVDRIP+EESTI+SUB&amp;tr=udp%3A%2F%2Ftracker.openbittorrent.com%3A80&amp;tr=udp%3A%2F%2Fopen.demonii.com%3A1337&amp;tr=udp%3A%2F%2Ftracker.coppersurfer.tk%3A6969&amp;tr=udp%3A%2F%2Fexodus.desync.com%3A6969","seeders":0,"leechers":2,"uploader":"immri","files":1,"time":1387751014,"description":"Format                                   : AVI\nFormat/Info                              : Audio Video Interleave\nFormat profile                           : OpenDML\nFile size                                : 1.81 GiB\nDuration                                 : 1h 55mn\nOverall bit rate                         : 2 250 Kbps\nWriting application                      : Lavf52.13.0\n\nVideo\nID                                       : 0\nFormat                                   : MPEG-4 Visual\nFormat profile                           : Advanced Simple@L1\nFormat settings, BVOP                    : 2\nFormat settings, QPel                    : No\nFormat settings, GMC                     : No warppoints\nFormat settings, Matrix                  : Default (H.263)\nCodec ID                                 : DX50\nCodec ID/Hint                            : DivX 5\nDuration                                 : 1h 55mn\nBit rate                                 : 2 045 Kbps\nWidth                                    : 720 pixels\nHeight                                   : 576 pixels\nDisplay aspect ratio                     : 5:4\nFrame rate                               : 25.000 fps\nStandard                                 : PAL\nColor space                              : YUV\nChroma subsampling                       : 4:2:0\nBit depth                                : 8 bits\nScan type                                : Progressive\nCompression mode                         : Lossy\nBits/(Pixel*Frame)                       : 0.197\nStream size                              : 1.65 GiB (91%)\nWriting library                          : Lavc51.54.0\n\nAudio\nID                                       : 1\nFormat                                   : MPEG Audio\nFormat version                           : Version 1\nFormat profile                           : Layer 3\nMode                                     : Joint stereo\nCodec ID                                 : 55\nCodec ID/Hint                            : MP3\nDuration                                 : 1h 55mn\nBit rate mode                            : Constant\nBit rate                                 : 192 Kbps\nChannel(s)                               : 2 channels\nSampling rate                            : 44.1 KHz\nCompression mode                         : Lossy\nStream size                              : 158 MiB (9%)\nAlignment                                : Aligned on interleaves\nInterleave, duration                     : 26 ms (0.65 video frame)\nWriting library                          : LAME3.98 (beta)\n\n","torrent":{"xt":"urn:btih:6b8e688d8f945659ad125bd0915d7b7f6b9e65a4","amp;dn":"Operatsioon+%3DValk%26uuml%3B%26uuml%3Br+%28+Valkyrie+2008%29+DVDRIP+EESTI+SUB","amp;tr":["udp%3A%2F%2Ftracker.openbittorrent.com%3A80","udp%3A%2F%2Fopen.demonii.com%3A1337","udp%3A%2F%2Ftracker.coppersurfer.tk%3A6969","udp%3A%2F%2Fexodus.desync.com%3A6969"],"infoHash":"6b8e688d8f945659ad125bd0915d7b7f6b9e65a4","infoHashBuffer":{"type":"Buffer","data":[107,142,104,141,143,148,86,89,173,18,91,208,145,93,123,127,107,158,101,164]},"announce":[],"urlList":[]}}